<?xml version="1.0" standalone="no"?>
<!DOCTYPE svg PUBLIC "-//W3C//DTD SVG 20010904//EN"
 "http://www.w3.org/TR/2001/REC-SVG-20010904/DTD/svg10.dtd">
<svg version="1.0" xmlns="http://www.w3.org/2000/svg"
 width="640.000000pt" height="500.000000pt" viewBox="0 0 640.000000 500.000000"
 preserveAspectRatio="xMidYMid meet">

<g transform="translate(0.000000,500.000000) scale(0.100000,-0.100000)"
fill="#000000" stroke="none">
<path d="M1540 2030 l0 -311 88 3 87 3 3 233 2 232 90 0 c166 0 173 -10 180
-270 l5 -195 89 -3 88 -3 -4 218 c-3 179 -7 225 -22 258 -23 54 -62 93 -116
119 -41 19 -66 21 -267 24 l-223 4 0 -312z"/>
<path d="M2200 2328 c0 -7 45 -146 98 -308 l98 -295 126 -3 126 -3 101 303
c56 167 101 306 101 311 0 4 -40 7 -88 7 l-88 0 -68 -227 c-38 -126 -72 -234
-76 -241 -4 -8 -36 90 -75 227 l-69 241 -93 0 c-68 0 -93 -3 -93 -12z"/>
<path d="M2930 2030 l0 -311 88 3 87 3 3 308 2 307 -90 0 -90 0 0 -310z"/>
<path d="M3210 2029 l0 -311 208 4 c218 5 251 11 311 56 101 75 121 325 36
454 -30 45 -92 82 -163 97 -29 6 -129 11 -222 11 l-170 0 0 -311z m360 152
c53 -27 74 -72 74 -152 -2 -118 -48 -163 -182 -175 l-72 -7 0 183 0 183 73 -7
c39 -4 88 -15 107 -25z"/>
<path d="M3900 2030 l0 -310 90 0 90 0 0 310 0 310 -90 0 -90 0 0 -310z"/>
<path d="M4397 2333 c-4 -7 -150 -369 -228 -565 l-19 -48 88 0 88 0 19 55 18
55 148 0 148 0 17 -55 18 -55 94 0 c85 0 94 2 88 18 -4 9 -59 149 -124 309
l-117 293 -117 0 c-64 0 -119 -3 -121 -7z m194 -315 l28 -78 -108 0 -109 0 47
123 c26 67 51 131 55 142 9 21 13 12 87 -187z"/>
<path d="M4937 1822 c-10 -10 -17 -28 -17 -40 0 -22 34 -52 61 -52 22 0 49 32
49 58 0 47 -61 69 -93 34z m70 -19 c13 -19 12 -24 -6 -42 -37 -37 -84 6 -54
48 18 26 40 24 60 -6z"/>
<path d="M4957 1813 c-10 -10 -8 -53 2 -53 5 0 12 6 14 13 4 10 6 10 6 0 2
-23 17 -14 17 10 0 28 -23 47 -39 30z"/>
<path d="M1380 1194 l0 -216 99 4 c107 3 132 13 175 72 18 24 21 42 21 141 0
112 0 114 -31 152 -38 46 -82 61 -186 62 l-78 1 0 -216z m175 142 c47 -20 55
-42 55 -146 0 -88 -1 -93 -29 -121 -26 -25 -37 -29 -85 -29 l-56 0 0 155 0
155 40 0 c22 0 56 -6 75 -14z"/>
<path d="M1780 1195 l0 -215 135 0 135 0 0 30 0 30 -105 0 -105 0 0 65 0 65
90 0 c89 0 90 0 90 25 0 25 -1 25 -90 25 l-90 0 0 65 0 65 105 0 105 0 0 30 0
30 -135 0 -135 0 0 -215z"/>
<path d="M2130 1195 l0 -215 135 0 135 0 0 30 0 30 -105 0 -105 0 0 65 0 65
90 0 c89 0 90 0 90 25 0 25 -1 25 -90 25 l-90 0 0 65 0 65 105 0 105 0 0 30 0
30 -135 0 -135 0 0 -215z"/>
<path d="M2490 1196 l0 -216 30 0 30 0 0 85 0 85 75 0 c71 0 77 2 111 33 61
56 57 152 -9 199 -25 18 -48 22 -133 26 l-104 5 0 -217z m205 133 c26 -26 27
-63 5 -92 -19 -24 -28 -27 -86 -27 l-64 0 0 71 0 72 66 -6 c36 -2 72 -11 79
-18z"/>
<path d="M2915 1397 c-65 -31 -91 -96 -61 -159 20 -42 60 -66 122 -75 61 -8
98 -41 85 -75 -18 -49 -87 -61 -161 -27 l-44 20 -18 -23 c-17 -22 -16 -24 5
-40 49 -39 173 -51 227 -23 55 28 76 105 45 164 -16 32 -60 56 -120 66 -60 11
-85 30 -85 66 0 52 59 64 156 34 15 -5 25 0 37 18 16 25 16 25 -21 43 -48 23
-129 28 -167 11z"/>
<path d="M3180 1380 l0 -30 60 0 60 0 0 -185 0 -185 30 0 30 0 0 185 0 185 60
0 60 0 0 30 0 30 -150 0 -150 0 0 -30z"/>
<path d="M3550 1195 l0 -215 30 0 30 0 0 90 0 90 43 0 43 0 41 -90 41 -90 40
0 39 0 -48 94 -49 94 25 16 c58 38 71 132 24 182 -30 32 -77 44 -176 44 l-83
0 0 -215z m210 135 c26 -26 25 -58 -2 -87 -18 -19 -32 -23 -85 -23 l-63 0 0
65 0 65 65 0 c52 0 69 -4 85 -20z"/>
<path d="M3930 1195 l0 -215 135 0 135 0 0 30 0 30 -105 0 -105 0 0 65 0 65
90 0 c89 0 90 0 90 25 0 25 -1 25 -90 25 l-90 0 0 65 0 65 105 0 105 0 0 30 0
30 -135 0 -135 0 0 -215z"/>
<path d="M4386 1401 c-4 -6 -55 -145 -142 -383 l-13 -38 33 0 c32 0 35 3 52
50 l18 51 79 -3 79 -3 18 -45 c15 -39 22 -45 49 -48 17 -2 31 1 31 5 0 8 -115
328 -141 396 -11 27 -51 39 -63 18z m59 -174 c14 -46 25 -86 25 -90 0 -4 -27
-7 -60 -7 -33 0 -60 1 -60 3 0 3 44 136 55 165 8 23 14 12 40 -71z"/>
<path d="M4670 1195 l0 -215 30 0 30 0 0 133 1 132 44 -100 c39 -90 47 -100
72 -103 27 -2 30 2 67 90 22 51 43 97 48 102 4 6 8 -49 8 -122 l0 -132 30 0
30 0 0 216 0 215 -32 -3 c-30 -3 -33 -8 -87 -135 -31 -73 -59 -133 -62 -133
-3 0 -32 61 -65 135 -55 127 -60 135 -86 135 l-28 0 0 -215z"/>
</g>
</svg>
